Coordinates
version=1
nRows=43
nColumns=12
inDegrees=yes

Units are S.I. units (second, meters, Newtons, ...)
Angles are in degrees

endheader
time	SC_y	SC_z	SC_x	AC_y	AC_z	AC_x	GH_y	GH_z	GH_yy	EL_x	PS_y
       0.0              -14.89          23.43          40.89          63.07         -14.43         -19.75          76.61          81.32         -14.78          13.82           91.7
    0.0364               -14.9          23.43          40.89          63.07         -14.42         -19.74          76.58          81.32         -14.78          13.83          91.69
    0.0728               -14.9          23.42          40.89          63.07         -14.42         -19.74          76.55          81.32         -14.78          13.84          91.68
    0.1092               -14.9          23.42          40.89          63.08         -14.42         -19.73          76.51          81.31         -14.78          13.86          91.67
    0.1456              -14.91          23.41          40.89          63.08         -14.41         -19.72          76.47          81.31         -14.78          13.87          91.66
     0.182              -14.91          23.41          40.89          63.08         -14.41         -19.72          76.43           81.3         -14.78          13.89          91.65
    0.2184              -14.91           23.4          40.89          63.08         -14.41         -19.71          76.39           81.3         -14.79           13.9          91.64
    0.2548              -14.92           23.4          40.89          63.08          -14.4          -19.7          76.34          81.29         -14.79          13.92          91.63
    0.2912              -14.92          23.39          40.89          63.08          -14.4         -19.69          76.29          81.28         -14.79          13.94          91.62
    0.3276              -14.93          23.38          40.89          63.08         -14.39         -19.69          76.24          81.28         -14.79          13.96           91.6
     0.364              -14.93          23.38          40.88          63.08         -14.39         -19.68          76.18          81.27         -14.79          13.98          91.59
    0.4004              -14.94          23.37          40.88          63.09         -14.38         -19.66          76.12          81.26          -14.8          14.01          91.57
    0.4368              -14.94          23.36          40.88          63.09         -14.38         -19.65          76.05          81.25          -14.8          14.03          91.56
    0.4732              -14.95          23.35          40.88          63.09         -14.37         -19.64          75.98          81.24          -14.8          14.06          91.54
    0.5096              -14.95          23.34          40.88          63.09         -14.36         -19.63           75.9          81.23         -14.81          14.09          91.52
     0.546              -14.96          23.33          40.88           63.1         -14.36         -19.61          75.81          81.22         -14.81          14.12           91.5
    0.5824              -14.97          23.32          40.87           63.1         -14.35          -19.6          75.72          81.21         -14.81          14.16          91.48
    0.6188              -14.98          23.31          40.87           63.1         -14.34         -19.58          75.62           81.2         -14.82           14.2          91.45
    0.6552              -14.99          23.29          40.87           63.1         -14.33         -19.56          75.51          81.18         -14.82          14.24          91.43
    0.6916               -15.0          23.28          40.87          63.11         -14.32         -19.54          75.39          81.17         -14.83          14.29           91.4
     0.728              -15.01          23.26          40.86          63.11         -14.31         -19.52          75.26          81.15         -14.83          14.34          91.37
    0.7644              -15.02          23.24          40.86          63.12         -14.29          -19.5          75.11          81.13         -14.84          14.39          91.33
    0.8008              -15.03          23.22          40.86          63.12         -14.28         -19.47          74.95          81.11         -14.84          14.45          91.29
    0.8372              -15.05           23.2          40.85          63.13         -14.26         -19.44          74.77          81.09         -14.85          14.52          91.25
    0.8736              -15.06          23.18          40.85          63.13         -14.25         -19.41          74.58          81.07         -14.86           14.6           91.2
      0.91              -15.08          23.15          40.84          63.14         -14.23         -19.37          74.35          81.04         -14.87          14.68          91.15
    0.9464               -15.1          23.12          40.84          63.15          -14.2         -19.33          74.11          81.01         -14.88          14.77          91.09
    0.9828              -15.13          23.08          40.83          63.15         -14.18         -19.28          73.83          80.97         -14.89          14.88          91.02
     1.019              -15.15          23.04          40.83          63.16         -14.15         -19.23          73.51          80.93          -14.9           15.0          90.94
     1.056              -15.18           23.0          40.82          63.17         -14.12         -19.17          73.16          80.89         -14.92          15.14          90.86
     1.092              -15.22          22.95          40.81          63.19         -14.08          -19.1          72.75          80.83         -14.94          15.29          90.76
     1.128              -15.26          22.89           40.8           63.2         -14.04         -19.02          72.28          80.78         -14.95          15.47          90.64
     1.165               -15.3          22.82          40.79          63.22         -13.99         -18.93          71.74          80.71         -14.98          15.68          90.51
     1.201              -15.35          22.74          40.77          63.23         -13.94         -18.82          71.12          80.63          -15.0          15.91          90.36
     1.238              -15.41          22.65          40.76          63.26         -13.87          -18.7          70.38          80.53         -15.03          16.19          90.18
     1.274              -15.49          22.54          40.74          63.28         -13.79         -18.55          69.52          80.42         -15.07          16.52          89.97
      1.31              -15.57          22.41          40.72          63.31          -13.7         -18.38          68.49          80.29         -15.11          16.92          89.72
     1.347              -15.68          22.25          40.69          63.35         -13.59         -18.17          67.25          80.14         -15.16          17.39          89.42
     1.383               -15.8          22.07          40.66          63.39         -13.46         -17.92          65.76          79.95         -15.22          17.95          89.06
      1.42              -15.95          21.84          40.62          63.44          -13.3         -17.61          63.94          79.72          -15.3          18.65          88.61
     1.456              -16.14          21.56          40.57          63.51          -13.1         -17.23          61.69          79.43         -15.39          19.51          88.07
     1.492              -16.37           21.2          40.51          63.59         -12.85         -16.76          58.89          79.08         -15.51          20.57          87.39
     1.529              -16.67          20.76          40.43           63.7         -12.53         -16.17          55.36          78.63         -15.65          21.92          86.53
